<?xml version="1.0" encoding="UTF-8"?>
<svg width="432px" height="432px" viewBox="0 0 432 432" version="1.1" xmlns="http://www.w3.org/2000/svg" xmlns:xlink="http://www.w3.org/1999/xlink">
    <!-- Generator: Sketch 51 (57462) - http://www.bohemiancoding.com/sketch -->
    <title>Group 10</title>
    <desc>Created with Sketch.</desc>
    <defs></defs>
    <g id="Page-1" stroke="none" stroke-width="1" fill="none" fill-rule="evenodd">
        <g id="Desktop-Copy-2" transform="translate(-984.000000, -80.000000)" fill="#4AB2F8" stroke="#4AB2F8">
            <g id="Group-10" transform="translate(985.000000, 81.000000)">
                <g id="Group" transform="translate(418.000000, 417.000000)">
                    <rect id="Rectangle-5" x="10" y="0" width="2" height="12"></rect>
                    <rect id="Rectangle-5" transform="translate(6.000000, 12.000000) rotate(-90.000000) translate(-6.000000, -12.000000) " x="5" y="6" width="2" height="12"></rect>
                </g>
                <g id="Group-Copy" transform="translate(424.000000, 6.500000) scale(1, -1) translate(-424.000000, -6.500000) translate(418.000000, 0.000000)">
                    <rect id="Rectangle-5" x="10" y="0" width="2" height="12"></rect>
                    <rect id="Rectangle-5" transform="translate(6.000000, 12.000000) rotate(-90.000000) translate(-6.000000, -12.000000) " x="5" y="6" width="2" height="12"></rect>
                </g>
                <g id="Group-Copy-2" transform="translate(6.000000, 6.500000) scale(-1, -1) translate(-6.000000, -6.500000) ">
                    <rect id="Rectangle-5" x="10" y="0" width="2" height="12"></rect>
                    <rect id="Rectangle-5" transform="translate(6.000000, 12.000000) rotate(-90.000000) translate(-6.000000, -12.000000) " x="5" y="6" width="2" height="12"></rect>
                </g>
                <g id="Group-Copy-3" transform="translate(6.000000, 423.500000) scale(-1, 1) translate(-6.000000, -423.500000) translate(0.000000, 417.000000)">
                    <rect id="Rectangle-5" x="10" y="0" width="2" height="12"></rect>
                    <rect id="Rectangle-5" transform="translate(6.000000, 12.000000) rotate(-90.000000) translate(-6.000000, -12.000000) " x="5" y="6" width="2" height="12"></rect>
                </g>
            </g>
        </g>
    </g>
</svg>